<svg xmlns="http://www.w3.org/2000/svg" xmlns:xlink="http://www.w3.org/1999/xlink" width="500" zoomAndPan="magnify" viewBox="0 0 375 374.999991" height="500" preserveAspectRatio="xMidYMid meet" version="1.0"><defs><g/></defs><g fill="#fbfdfa" fill-opacity="1"><g transform="translate(31.75865, 290.251446)"><g><path d="M 62.265625 -83.453125 L 62.265625 -31.453125 L 153 -31.453125 L 153 0 L 24.703125 0 L 24.703125 -190.046875 L 150.921875 -190.046875 L 150.921875 -158.59375 L 62.265625 -158.59375 L 62.265625 -114.125 L 139.734375 -114.125 L 139.734375 -83.453125 Z M 62.265625 -83.453125 "/></g></g></g><g fill="#fbfdfa" fill-opacity="1"><g transform="translate(179.977653, 290.251446)"><g><path d="M 84.234375 2.734375 C 71.054688 2.734375 59.332031 1.109375 49.0625 -2.140625 C 38.800781 -5.390625 30.242188 -9.65625 23.390625 -14.9375 C 16.546875 -20.226562 11.304688 -26.039062 7.671875 -32.375 L 28.34375 -57.578125 L 31.59375 -57.578125 C 37.3125 -49.085938 44.566406 -42.328125 53.359375 -37.296875 C 62.160156 -32.273438 72.453125 -29.765625 84.234375 -29.765625 C 94.285156 -29.765625 101.867188 -31.882812 106.984375 -36.125 C 112.097656 -40.375 114.65625 -46.226562 114.65625 -53.6875 C 114.65625 -58.1875 113.832031 -61.953125 112.1875 -64.984375 C 110.539062 -68.023438 107.804688 -70.628906 103.984375 -72.796875 C 100.171875 -74.960938 95.015625 -76.828125 88.515625 -78.390625 L 64.078125 -83.96875 C 47.015625 -87.875 34.300781 -94.351562 25.9375 -103.40625 C 17.570312 -112.457031 13.390625 -124.222656 13.390625 -138.703125 C 13.390625 -149.441406 16.070312 -158.882812 21.4375 -167.03125 C 26.8125 -175.175781 34.632812 -181.503906 44.90625 -186.015625 C 55.175781 -190.523438 67.460938 -192.78125 81.765625 -192.78125 C 96.410156 -192.78125 108.953125 -190.847656 119.390625 -186.984375 C 129.835938 -183.128906 138.65625 -177.21875 145.84375 -169.25 L 127.265625 -143.765625 L 124.015625 -143.765625 C 118.640625 -149.398438 112.484375 -153.625 105.546875 -156.4375 C 98.617188 -159.257812 90.691406 -160.671875 81.765625 -160.671875 C 71.453125 -160.671875 63.609375 -158.847656 58.234375 -155.203125 C 52.859375 -151.566406 50.171875 -146.539062 50.171875 -140.125 C 50.171875 -134.144531 52.054688 -129.378906 55.828125 -125.828125 C 59.597656 -122.273438 66.117188 -119.503906 75.390625 -117.515625 L 100.359375 -112.3125 C 118.816406 -108.414062 132.203125 -101.804688 140.515625 -92.484375 C 148.835938 -83.171875 153 -71.019531 153 -56.03125 C 153 -44.15625 150.441406 -33.816406 145.328125 -25.015625 C 140.210938 -16.222656 132.5 -9.398438 122.1875 -4.546875 C 111.875 0.304688 99.222656 2.734375 84.234375 2.734375 Z M 84.234375 2.734375 "/></g></g></g></svg>