<svg xmlns="http://www.w3.org/2000/svg" xmlns:xlink="http://www.w3.org/1999/xlink" width="500" zoomAndPan="magnify" viewBox="0 0 375 374.999991" height="500" preserveAspectRatio="xMidYMid meet" version="1.0"><defs><g/></defs><g fill="#fbfdfa" fill-opacity="1"><g transform="translate(73.749184, 240.113383)"><g><path d="M 43.359375 -58.109375 L 43.359375 -21.90625 L 106.53125 -21.90625 L 106.53125 0 L 17.203125 0 L 17.203125 -132.328125 L 105.09375 -132.328125 L 105.09375 -110.421875 L 43.359375 -110.421875 L 43.359375 -79.46875 L 97.296875 -79.46875 L 97.296875 -58.109375 Z M 43.359375 -58.109375 "/></g></g></g><g fill="#fbfdfa" fill-opacity="1"><g transform="translate(187.522856, 240.113383)"><g><path d="M 58.65625 1.90625 C 49.476562 1.90625 41.3125 0.773438 34.15625 -1.484375 C 27.007812 -3.753906 21.050781 -6.726562 16.28125 -10.40625 C 11.519531 -14.09375 7.875 -18.132812 5.34375 -22.53125 L 19.734375 -40.09375 L 22 -40.09375 C 25.976562 -34.1875 31.03125 -29.484375 37.15625 -25.984375 C 43.28125 -22.484375 50.445312 -20.734375 58.65625 -20.734375 C 65.65625 -20.734375 70.929688 -22.207031 74.484375 -25.15625 C 78.046875 -28.113281 79.828125 -32.1875 79.828125 -37.375 C 79.828125 -40.519531 79.253906 -43.144531 78.109375 -45.25 C 76.960938 -47.363281 75.0625 -49.175781 72.40625 -50.6875 C 69.75 -52.195312 66.160156 -53.492188 61.640625 -54.578125 L 44.625 -58.46875 C 32.738281 -61.1875 23.882812 -65.695312 18.0625 -72 C 12.238281 -78.3125 9.328125 -86.503906 9.328125 -96.578125 C 9.328125 -104.054688 11.195312 -110.632812 14.9375 -116.3125 C 18.675781 -121.988281 24.117188 -126.394531 31.265625 -129.53125 C 38.421875 -132.664062 46.976562 -134.234375 56.9375 -134.234375 C 67.132812 -134.234375 75.867188 -132.890625 83.140625 -130.203125 C 90.410156 -127.515625 96.550781 -123.394531 101.5625 -117.84375 L 88.609375 -100.109375 L 86.34375 -100.109375 C 82.601562 -104.035156 78.316406 -106.976562 73.484375 -108.9375 C 68.660156 -110.894531 63.144531 -111.875 56.9375 -111.875 C 49.75 -111.875 44.285156 -110.609375 40.546875 -108.078125 C 36.804688 -105.546875 34.9375 -102.046875 34.9375 -97.578125 C 34.9375 -93.410156 36.25 -90.085938 38.875 -87.609375 C 41.5 -85.140625 46.039062 -83.210938 52.5 -81.828125 L 69.875 -78.203125 C 82.726562 -75.484375 92.050781 -70.878906 97.84375 -64.390625 C 103.632812 -57.910156 106.53125 -49.453125 106.53125 -39.015625 C 106.53125 -30.742188 104.75 -23.546875 101.1875 -17.421875 C 97.632812 -11.296875 92.265625 -6.539062 85.078125 -3.15625 C 77.898438 0.21875 69.09375 1.90625 58.65625 1.90625 Z M 58.65625 1.90625 "/></g></g></g><g fill="#fbfdfa" fill-opacity="1"><g transform="translate(21.919035, 302.139179)"><g><path d="M 13.234375 -17.734375 L 13.234375 -6.6875 L 32.53125 -6.6875 L 32.53125 0 L 5.25 0 L 5.25 -40.40625 L 32.078125 -40.40625 L 32.078125 -33.71875 L 13.234375 -33.71875 L 13.234375 -24.265625 L 29.703125 -24.265625 L 29.703125 -17.734375 Z M 13.234375 -17.734375 "/></g></g></g><g fill="#fbfdfa" fill-opacity="1"><g transform="translate(66.548456, 302.139179)"><g><path d="M 15.0625 0.578125 C 12.644531 0.578125 10.507812 -0.00390625 8.65625 -1.171875 C 6.8125 -2.335938 5.363281 -4.101562 4.3125 -6.46875 C 3.257812 -8.84375 2.734375 -11.757812 2.734375 -15.21875 C 2.734375 -18.707031 3.269531 -21.632812 4.34375 -24 C 5.425781 -26.363281 6.921875 -28.128906 8.828125 -29.296875 C 10.734375 -30.472656 12.941406 -31.0625 15.453125 -31.0625 C 17.347656 -31.0625 18.988281 -30.734375 20.375 -30.078125 C 21.769531 -29.421875 22.945312 -28.40625 23.90625 -27.03125 L 24.484375 -27.15625 L 24.484375 -42.71875 L 32.140625 -42.71875 L 32.140625 0 L 24.484375 0 L 24.484375 -3.953125 L 23.90625 -4.0625 C 23.050781 -2.625 21.882812 -1.488281 20.40625 -0.65625 C 18.9375 0.164062 17.15625 0.578125 15.0625 0.578125 Z M 17.546875 -5.90625 C 19.703125 -5.90625 21.40625 -6.675781 22.65625 -8.21875 C 23.90625 -9.757812 24.53125 -12.09375 24.53125 -15.21875 C 24.53125 -18.351562 23.90625 -20.691406 22.65625 -22.234375 C 21.40625 -23.785156 19.703125 -24.5625 17.546875 -24.5625 C 15.296875 -24.5625 13.578125 -23.8125 12.390625 -22.3125 C 11.203125 -20.8125 10.609375 -18.445312 10.609375 -15.21875 C 10.609375 -12.019531 11.203125 -9.664062 12.390625 -8.15625 C 13.578125 -6.65625 15.296875 -5.90625 17.546875 -5.90625 Z M 17.546875 -5.90625 "/></g></g></g><g fill="#fbfdfa" fill-opacity="1"><g transform="translate(112.973568, 302.139179)"><g><path d="M 13.953125 0.578125 C 10.523438 0.578125 7.992188 -0.351562 6.359375 -2.21875 C 4.734375 -4.09375 3.921875 -6.78125 3.921875 -10.28125 L 3.921875 -30.484375 L 11.578125 -30.484375 L 11.578125 -11.25 C 11.578125 -9.382812 11.976562 -8.023438 12.78125 -7.171875 C 13.582031 -6.316406 14.820312 -5.890625 16.5 -5.890625 C 18.613281 -5.890625 20.257812 -6.582031 21.4375 -7.96875 C 22.625 -9.363281 23.21875 -11.550781 23.21875 -14.53125 L 23.21875 -30.484375 L 30.859375 -30.484375 L 30.859375 0 L 23.515625 0 L 23.515625 -4.484375 L 22.9375 -4.609375 C 21.957031 -2.859375 20.765625 -1.554688 19.359375 -0.703125 C 17.953125 0.148438 16.148438 0.578125 13.953125 0.578125 Z M 13.953125 0.578125 "/></g></g></g><g fill="#fbfdfa" fill-opacity="1"><g transform="translate(158.127889, 302.139179)"><g><path d="M 17.90625 0.578125 C 15.101562 0.578125 12.609375 0.234375 10.421875 -0.453125 C 8.242188 -1.148438 6.425781 -2.054688 4.96875 -3.171875 C 3.519531 -4.296875 2.40625 -5.53125 1.625 -6.875 L 6.03125 -12.234375 L 6.71875 -12.234375 C 7.925781 -10.429688 9.46875 -8.992188 11.34375 -7.921875 C 13.21875 -6.859375 15.40625 -6.328125 17.90625 -6.328125 C 20.039062 -6.328125 21.648438 -6.773438 22.734375 -7.671875 C 23.828125 -8.578125 24.375 -9.820312 24.375 -11.40625 C 24.375 -12.363281 24.195312 -13.164062 23.84375 -13.8125 C 23.5 -14.457031 22.921875 -15.007812 22.109375 -15.46875 C 21.296875 -15.9375 20.195312 -16.332031 18.8125 -16.65625 L 13.625 -17.84375 C 9.988281 -18.675781 7.28125 -20.054688 5.5 -21.984375 C 3.726562 -23.910156 2.84375 -26.410156 2.84375 -29.484375 C 2.84375 -31.765625 3.410156 -33.769531 4.546875 -35.5 C 5.691406 -37.238281 7.359375 -38.585938 9.546875 -39.546875 C 11.734375 -40.503906 14.34375 -40.984375 17.375 -40.984375 C 20.488281 -40.984375 23.15625 -40.570312 25.375 -39.75 C 27.601562 -38.925781 29.476562 -37.671875 31 -35.984375 L 27.046875 -30.5625 L 26.359375 -30.5625 C 25.222656 -31.757812 23.914062 -32.65625 22.4375 -33.25 C 20.96875 -33.851562 19.28125 -34.15625 17.375 -34.15625 C 15.1875 -34.15625 13.519531 -33.765625 12.375 -32.984375 C 11.238281 -32.210938 10.671875 -31.148438 10.671875 -29.796875 C 10.671875 -28.515625 11.070312 -27.492188 11.875 -26.734375 C 12.675781 -25.984375 14.0625 -25.398438 16.03125 -24.984375 L 21.328125 -23.875 C 25.253906 -23.039062 28.101562 -21.632812 29.875 -19.65625 C 31.644531 -17.675781 32.53125 -15.09375 32.53125 -11.90625 C 32.53125 -9.382812 31.984375 -7.1875 30.890625 -5.3125 C 29.804688 -3.445312 28.164062 -2 25.96875 -0.96875 C 23.78125 0.0625 21.09375 0.578125 17.90625 0.578125 Z M 17.90625 0.578125 "/></g></g></g><g fill="#fbfdfa" fill-opacity="1"><g transform="translate(202.729677, 302.139179)"><g><path d="M 21.03125 -7.265625 L 23.015625 -1.609375 C 22.191406 -0.921875 21.148438 -0.382812 19.890625 0 C 18.640625 0.382812 17.222656 0.578125 15.640625 0.578125 C 12.335938 0.578125 9.828125 -0.316406 8.109375 -2.109375 C 6.398438 -3.910156 5.546875 -6.523438 5.546875 -9.953125 L 5.546875 -24.421875 L 0.90625 -24.421875 L 0.90625 -30.5 L 5.546875 -30.5 L 5.546875 -36.453125 L 13.203125 -37.6875 L 13.203125 -30.5 L 21.859375 -30.5 L 21.859375 -24.421875 L 13.203125 -24.421875 L 13.203125 -10.5 C 13.203125 -8.988281 13.515625 -7.882812 14.140625 -7.1875 C 14.773438 -6.5 15.691406 -6.15625 16.890625 -6.15625 C 18.242188 -6.15625 19.429688 -6.523438 20.453125 -7.265625 Z M 21.03125 -7.265625 "/></g></g></g><g fill="#fbfdfa" fill-opacity="1"><g transform="translate(236.308677, 302.139179)"><g><path d="M 11.875 0.578125 C 9.925781 0.578125 8.234375 0.21875 6.796875 -0.5 C 5.359375 -1.21875 4.253906 -2.269531 3.484375 -3.65625 C 2.710938 -5.050781 2.328125 -6.722656 2.328125 -8.671875 C 2.328125 -10.484375 2.710938 -12 3.484375 -13.21875 C 4.253906 -14.445312 5.445312 -15.453125 7.0625 -16.234375 C 8.6875 -17.015625 10.8125 -17.617188 13.4375 -18.046875 C 15.257812 -18.335938 16.644531 -18.65625 17.59375 -19 C 18.539062 -19.351562 19.175781 -19.75 19.5 -20.1875 C 19.832031 -20.632812 20 -21.203125 20 -21.890625 C 20 -22.859375 19.660156 -23.597656 18.984375 -24.109375 C 18.304688 -24.628906 17.171875 -24.890625 15.578125 -24.890625 C 13.890625 -24.890625 12.28125 -24.507812 10.75 -23.75 C 9.21875 -23 7.890625 -22.007812 6.765625 -20.78125 L 6.21875 -20.78125 L 3.015625 -25.609375 C 4.554688 -27.328125 6.441406 -28.664062 8.671875 -29.625 C 10.898438 -30.582031 13.332031 -31.0625 15.96875 -31.0625 C 20.007812 -31.0625 22.929688 -30.203125 24.734375 -28.484375 C 26.535156 -26.773438 27.4375 -24.34375 27.4375 -21.1875 L 27.4375 -7.953125 C 27.4375 -6.585938 28.035156 -5.90625 29.234375 -5.90625 C 29.691406 -5.90625 30.144531 -5.988281 30.59375 -6.15625 L 30.984375 -6.046875 L 31.53125 -0.71875 C 31.101562 -0.4375 30.507812 -0.207031 29.75 -0.03125 C 29 0.132812 28.175781 0.21875 27.28125 0.21875 C 25.445312 0.21875 24.019531 -0.128906 23 -0.828125 C 21.976562 -1.523438 21.25 -2.625 20.8125 -4.125 L 20.234375 -4.171875 C 18.734375 -1.003906 15.945312 0.578125 11.875 0.578125 Z M 14.3125 -5.140625 C 16.082031 -5.140625 17.492188 -5.734375 18.546875 -6.921875 C 19.609375 -8.109375 20.140625 -9.757812 20.140625 -11.875 L 20.140625 -14.984375 L 19.625 -15.09375 C 19.15625 -14.71875 18.546875 -14.40625 17.796875 -14.15625 C 17.054688 -13.914062 15.988281 -13.675781 14.59375 -13.4375 C 12.9375 -13.15625 11.742188 -12.675781 11.015625 -12 C 10.285156 -11.332031 9.921875 -10.378906 9.921875 -9.140625 C 9.921875 -7.835938 10.304688 -6.84375 11.078125 -6.15625 C 11.847656 -5.476562 12.925781 -5.140625 14.3125 -5.140625 Z M 14.3125 -5.140625 "/></g></g></g><g fill="#fbfdfa" fill-opacity="1"><g transform="translate(278.341245, 302.139179)"><g><path d="M 15.8125 12.9375 C 10.78125 12.9375 7.066406 12.195312 4.671875 10.71875 C 2.273438 9.25 1.078125 7.195312 1.078125 4.5625 C 1.078125 2.957031 1.585938 1.644531 2.609375 0.625 C 3.628906 -0.394531 5.097656 -1.082031 7.015625 -1.4375 L 7.015625 -2.015625 C 5.984375 -2.640625 5.242188 -3.332031 4.796875 -4.09375 C 4.347656 -4.863281 4.125 -5.753906 4.125 -6.765625 C 4.125 -9.222656 5.710938 -10.875 8.890625 -11.71875 L 8.890625 -12.296875 C 7.253906 -13.234375 6.019531 -14.394531 5.1875 -15.78125 C 4.363281 -17.175781 3.953125 -18.859375 3.953125 -20.828125 C 3.953125 -22.859375 4.414062 -24.640625 5.34375 -26.171875 C 6.28125 -27.710938 7.644531 -28.910156 9.4375 -29.765625 C 11.226562 -30.628906 13.378906 -31.0625 15.890625 -31.0625 C 18.429688 -31.0625 20.457031 -30.617188 21.96875 -29.734375 C 22.90625 -31.097656 23.445312 -32.671875 23.59375 -34.453125 L 24.171875 -34.8125 L 29.671875 -33.46875 C 29.515625 -32.007812 29.09375 -30.785156 28.40625 -29.796875 C 27.726562 -28.816406 26.671875 -27.9375 25.234375 -27.15625 L 25.234375 -26.5625 C 26.941406 -25.050781 27.796875 -22.941406 27.796875 -20.234375 C 27.796875 -18.347656 27.328125 -16.660156 26.390625 -15.171875 C 25.453125 -13.679688 24.082031 -12.5 22.28125 -11.625 C 20.488281 -10.757812 18.359375 -10.328125 15.890625 -10.328125 L 14.734375 -10.359375 C 13.992188 -10.398438 13.476562 -10.421875 13.1875 -10.421875 C 12.476562 -10.421875 11.925781 -10.226562 11.53125 -9.84375 C 11.132812 -9.46875 10.9375 -8.988281 10.9375 -8.40625 C 10.9375 -7.757812 11.191406 -7.253906 11.703125 -6.890625 C 12.222656 -6.535156 12.984375 -6.335938 13.984375 -6.296875 L 20.8125 -6.046875 C 27.550781 -5.847656 30.921875 -2.945312 30.921875 2.65625 C 30.921875 4.625 30.414062 6.375 29.40625 7.90625 C 28.40625 9.445312 26.78125 10.671875 24.53125 11.578125 C 22.289062 12.484375 19.382812 12.9375 15.8125 12.9375 Z M 15.890625 -15.703125 C 17.359375 -15.703125 18.507812 -16.132812 19.34375 -17 C 20.175781 -17.863281 20.59375 -19.097656 20.59375 -20.703125 C 20.59375 -22.304688 20.175781 -23.535156 19.34375 -24.390625 C 18.507812 -25.242188 17.359375 -25.671875 15.890625 -25.671875 C 14.398438 -25.671875 13.25 -25.242188 12.4375 -24.390625 C 11.625 -23.535156 11.21875 -22.304688 11.21875 -20.703125 C 11.21875 -19.078125 11.625 -17.835938 12.4375 -16.984375 C 13.25 -16.128906 14.398438 -15.703125 15.890625 -15.703125 Z M 15.8125 7.375 C 18.425781 7.375 20.328125 7.003906 21.515625 6.265625 C 22.703125 5.535156 23.296875 4.582031 23.296875 3.40625 C 23.296875 2.445312 22.988281 1.738281 22.375 1.28125 C 21.769531 0.832031 20.804688 0.585938 19.484375 0.546875 L 13.453125 0.28125 C 13.253906 0.28125 13.066406 0.269531 12.890625 0.25 C 12.710938 0.226562 12.539062 0.21875 12.375 0.21875 C 11.09375 0.21875 10.113281 0.492188 9.4375 1.046875 C 8.757812 1.597656 8.421875 2.363281 8.421875 3.34375 C 8.421875 4.632812 9.035156 5.628906 10.265625 6.328125 C 11.503906 7.023438 13.351562 7.375 15.8125 7.375 Z M 15.8125 7.375 "/></g></g></g><g fill="#fbfdfa" fill-opacity="1"><g transform="translate(319.931795, 302.139179)"><g><path d="M 30.125 -13.515625 L 10.53125 -13.515625 C 10.75 -10.859375 11.503906 -8.925781 12.796875 -7.71875 C 14.085938 -6.507812 15.847656 -5.90625 18.078125 -5.90625 C 19.828125 -5.90625 21.242188 -6.234375 22.328125 -6.890625 C 23.410156 -7.546875 24.285156 -8.535156 24.953125 -9.859375 L 25.53125 -9.859375 L 30.625 -6.609375 C 29.625 -4.472656 28.117188 -2.738281 26.109375 -1.40625 C 24.109375 -0.0820312 21.429688 0.578125 18.078125 0.578125 C 14.921875 0.578125 12.195312 -0.0195312 9.90625 -1.21875 C 7.613281 -2.414062 5.84375 -4.195312 4.59375 -6.5625 C 3.351562 -8.925781 2.734375 -11.8125 2.734375 -15.21875 C 2.734375 -18.6875 3.382812 -21.609375 4.6875 -23.984375 C 6 -26.359375 7.769531 -28.128906 10 -29.296875 C 12.226562 -30.472656 14.734375 -31.0625 17.515625 -31.0625 C 21.828125 -31.0625 25.128906 -29.914062 27.421875 -27.625 C 29.710938 -25.34375 30.859375 -21.992188 30.859375 -17.578125 C 30.859375 -15.972656 30.804688 -14.726562 30.703125 -13.84375 Z M 23.546875 -18.453125 C 23.472656 -20.773438 22.929688 -22.46875 21.921875 -23.53125 C 20.921875 -24.59375 19.453125 -25.125 17.515625 -25.125 C 13.648438 -25.125 11.375 -22.898438 10.6875 -18.453125 Z M 23.546875 -18.453125 "/></g></g></g></svg>